<?xml version="1.0" encoding="UTF-8"?>
<!DOCTYPE svg PUBLIC "-//W3C//DTD SVG 1.1//EN" "http://www.w3.org/Graphics/SVG/1.1/DTD/svg11.dtd">
<!-- Creator: CorelDRAW -->
<svg xmlns="http://www.w3.org/2000/svg" xml:space="preserve" width="26.8142mm" height="8.2036mm" version="1.1" style="shape-rendering:geometricPrecision; text-rendering:geometricPrecision; image-rendering:optimizeQuality; fill-rule:evenodd; clip-rule:evenodd"
viewBox="0 0 2672.25 817.55"
 xmlns:xlink="http://www.w3.org/1999/xlink"
 xmlns:xodm="http://www.corel.com/coreldraw/odm/2003"
 xmlns:dc="http://purl.org/dc/elements/1.1/"
 xmlns:cc="http://creativecommons.org/ns#"
 xmlns:rdf="http://www.w3.org/1999/02/22-rdf-syntax-ns#"
 xmlns:svg="http://www.w3.org/2000/svg"
 xmlns:sodipodi="http://sodipodi.sourceforge.net/DTD/sodipodi-0.dtd"
 xmlns:inkscape="http://www.inkscape.org/namespaces/inkscape"
 sodipodi:docname="kwai-logo.svg"
 inkscape:version="0.92.0 r15299">
 <defs>
  <style type="text/css">
   <![CDATA[
    .fil1 {fill:#2D2D2D;fill-rule:nonzero}
    .fil0 {fill:#FF4906;fill-rule:nonzero}
   ]]>
  </style>
 </defs>
 <g id="Camada_x0020_1">
  <metadata id="CorelCorpID_0Corel-Layer"/>
  <g id="_105553132406400">
   <sodipodi:namedview pagecolor="#ffffff" bordercolor="#666666" borderopacity="1" objecttolerance="10" gridtolerance="10" guidetolerance="10" inkscape:pageopacity="0" inkscape:pageshadow="2" inkscape:window-width="1920" inkscape:window-height="1017" id="namedview32" showgrid="false" inkscape:zoom="0.54631994" inkscape:cx="653.53571" inkscape:cy="413.93417" inkscape:window-x="-8" inkscape:window-y="-8" inkscape:window-maximized="1" inkscape:current-layer="svg30"/>
   <path id="path4" class="fil0" d="M266.69 0.01c-9.52,0.07 -19.01,0.84 -28.4,2.3 -51.97,7.75 -99.98,38.01 -129.46,81.51 -43.97,62.84 -44.68,150.6 -2.55,214.55 31.35,48.3 84.5,81.2 142.01,86.54 62.41,6.95 125.69,-18.67 166.51,-66.2 37.16,50.19 100.84,76.01 162.51,64.73 49.96,-8.32 94.58,-41.02 117.91,-85.95 23.87,-44.72 25.21,-99.87 4.3,-145.97 -21.09,-46.83 -64.73,-82.55 -115.09,-93.22 -52.87,-11.68 -108.16,3.19 -148.21,39.44 -20.14,-34.57 -50.06,-62.97 -86.51,-79.77 -25.81,-12.13 -54.46,-18.19 -83.02,-17.98l0 0zm1.28 78.26c35.76,0 70.98,17.53 92.25,46.71 29.98,39.75 29.88,96.45 -0.1,136.13 -29.55,40.59 -84.67,57.17 -131.7,39.32 -47.78,-17.29 -79.37,-66.65 -74.5,-117.34 3.97,-49.12 41.16,-91.62 89.37,-101.95 8.14,-1.94 16.42,-2.88 24.68,-2.88l0 0.01zm281.55 54.42c16.58,0.22 33.07,5.29 46.9,14.55 26.05,16.78 41.87,48.6 39.32,79.49 -3.06,42.43 -38.95,78.62 -81.65,80.53 -37.97,3.16 -74.73,-21.38 -87.59,-56.96 -9.27,-24.28 -6.68,-51.93 6.65,-74.19 11.85,-20.62 32.43,-35.62 55.53,-41.06 5.76,-1.42 11.64,-2.19 17.54,-2.34 1.1,-0.03 2.2,-0.04 3.31,-0.02l0 0z" inkscape:connector-curvature="0"/>
   <path id="path8" class="fil1" d="M933.31 110.04c29.34,0 58.72,-0.03 88.09,0 0,117.33 0.04,234.66 -0.03,352.02 67.08,-64.79 133.88,-129.91 201.33,-194.27 39.61,0.07 79.26,-0.03 118.87,0.07 -61.4,58.75 -123.14,117.2 -184.95,175.58 63.79,100.38 127.84,200.61 191.49,301.06 -34.44,0.07 -68.89,0.07 -103.3,0.04 -50.43,-80.6 -101.22,-160.94 -151.61,-241.55 -24.14,22.12 -48.08,44.56 -71.87,67.11 0.13,58.15 0.07,116.29 0.07,174.44 -29.38,0.03 -58.76,0 -88.1,0 -0.03,-211.5 -0.03,-423 0,-634.49l0 0z" inkscape:connector-curvature="0"/>
   <path id="path10" class="fil1" d="M2618.61 109.91c26.86,-0.14 50.59,20.78 53.65,47.5l0 14c-3.53,26.72 -26.53,47.67 -53.76,47.1 -30.48,1.11 -56.26,-25.27 -54.65,-55.69 -0.2,-29.31 25.72,-53.72 54.76,-52.91l0 0z" inkscape:connector-curvature="0"/>
   <path id="path14" class="fil1" d="M1347.75 267.82c31.58,-0.03 63.17,0.04 94.73,-0.03 36.26,117.34 74.69,234.06 108.54,352.09 13.18,-47.67 27.23,-95.13 42.23,-142.24 21.59,-69.96 43.17,-139.89 64.87,-209.81 29.14,0 58.31,0 87.45,0 36.09,116.72 72.34,233.35 107.66,350.31 34.04,-117.33 71.53,-233.72 108.03,-350.35 31.56,0.1 63.08,-0.06 94.64,0.07 -52.6,158.99 -105.85,317.78 -158.72,476.67 -29.18,0.03 -58.35,-0.03 -87.52,0.03 -36.37,-115.38 -74.86,-230.2 -108.07,-346.52 -34.04,116.02 -71.67,231.01 -107.43,346.52 -29.13,-0.07 -58.27,0 -87.45,-0.03 -53.11,-158.85 -105.95,-317.82 -158.95,-476.7l0 -0.01z" inkscape:connector-curvature="0"/>
   <path id="path16" class="fil1" d="M2574.9 266.98c28.83,0 57.64,-0.03 86.44,0.03 0,159.43 0,318.9 0,478.32 -28.8,0.07 -57.61,0.04 -86.44,0.04 0,-159.46 0,-318.93 0,-478.39l0 0z" inkscape:connector-curvature="0"/>
   <path id="path18" class="fil1" d="M2257.28 270.26c-28.73,0.02 -57.2,5.91 -83.28,18.75 -42.4,20.11 -75.84,56.68 -96.31,98.53 -24.94,50.26 -31.77,106.26 -25.32,161.65 6.55,51.02 26.32,100.64 60.53,139.45 24.31,27.72 55.56,48.91 91.11,59.33 39.75,11.51 83.39,9.23 122.47,-3.9 28.37,-9.61 52.84,-26.63 73.9,-47.68 -0.07,16.31 -0.04,32.63 -0.04,48.98 28.84,0 57.64,0.04 86.44,-0.03l0 -469.93c-28.8,-0.07 -57.6,-0.04 -86.44,-0.04l0 53.15c-29.88,-31.99 -71.04,-51.19 -114.31,-56.37 -9.57,-1.26 -19.16,-1.9 -28.75,-1.89l0.01 0zm18.94 82.18c48.66,0.32 98.13,24.84 122.94,66.69 2.52,8.9 0.74,19.8 1.18,29.14 -0.44,50.96 0.81,102.79 -0.57,153.61 -37.13,67.38 -132.47,92.96 -197.53,51.13 -28.6,-18.43 -47.13,-49.18 -56.37,-81.38 -11.38,-41.8 -11.55,-87.68 3.8,-128.51 11.82,-31.58 33.24,-59.11 63.07,-75.46 19.4,-10.51 41.36,-15.38 63.48,-15.23l0 0z" inkscape:connector-curvature="0"/>
   <path id="path22" class="fil0" d="M574.14 418.82c-72.79,0.14 -145.63,0.04 -218.45,0.04 -58.88,1.51 -111.19,42.4 -129.45,98.02 -32.81,-16.04 -65.04,-33.24 -97.86,-49.28 -18.47,-8.8 -32.94,-20.04 -54.38,-20.31 -28.37,-1.64 -55.56,15.82 -66.57,41.87 -7.12,15.41 -4.97,35.05 -7.42,51.96l0 153.15c2.79,21.72 -0.27,39.94 10.64,59.09 17.15,31.69 58.95,44.85 91.15,28.39 41.56,-20.71 83.09,-41.66 124.72,-62.27 10,27.5 26.68,52.13 50.55,69.39 23.57,17.76 51.36,26.38 80.57,28.67l217.47 0c35.05,-2.32 68.55,-14.54 94.03,-39.19 28.2,-26.15 44.59,-63.17 45.09,-101.68 0.07,-38.14 -0.03,-76.28 0.04,-114.41 0.17,-29.01 -8.29,-57.78 -24.84,-81.68 -25.31,-37.53 -69.82,-62.11 -115.27,-61.78l0 0zm-3.27 73.93c35.52,0.27 66.37,29.38 68.99,64.76 1.21,27.3 0.17,54.79 0.51,82.12 -0.37,17.62 1.7,36.23 -3.43,52.94 -8.46,28.74 -36.09,49.79 -66.07,50.23 -68.32,0.17 -136.79,0.03 -205.11,0.06 -28.57,0.48 -55.4,-16.91 -66.47,-43.23 -7.35,-16.68 -5.34,-32.33 -5.54,-49.92 0.16,-30.29 -0.27,-60.56 0.16,-90.85 1.64,-35.65 32.7,-65.63 68.39,-66.06 69.46,-0.07 139.12,0 208.57,-0.04l0 0zm-477.98 44.23c5.45,0.1 10.18,2.27 15.14,4.65 37.2,18.87 74.63,37.26 111.87,56.1 0,13.7 0,27.39 -0.04,41.09 -39.18,19.7 -78.18,40.01 -117.4,59.66 -9.1,5.3 -20.71,0.2 -24.57,-9.07 -1.81,-6.17 -1.51,-13.18 -1.61,-19.56 0.27,-38.11 -0.04,-76.28 0.13,-114.38 -0.57,-8.96 5.98,-15.82 14.1,-18.4 0.82,-0.08 1.6,-0.1 2.38,-0.09l0 0z" inkscape:connector-curvature="0"/>
  </g>
 </g>
</svg>
